<svg id="visual" viewBox="0 0 960 300" width="960" height="300" xmlns="http://www.w3.org/2000/svg" xmlns:xlink="http://www.w3.org/1999/xlink" version="1.1"><rect x="0" y="0" width="960" height="300" fill="#f8f9fa"></rect><path d="M0 250L17.8 251.7C35.7 253.3 71.3 256.7 106.8 260.3C142.3 264 177.7 268 213.2 257.7C248.7 247.3 284.3 222.7 320 214.5C355.7 206.3 391.3 214.7 426.8 216.5C462.3 218.3 497.7 213.7 533.2 219.5C568.7 225.3 604.3 241.7 640 242.5C675.7 243.3 711.3 228.7 746.8 225.3C782.3 222 817.7 230 853.2 234.5C888.7 239 924.3 240 942.2 240.5L960 241L960 0L942.2 0C924.3 0 888.7 0 853.2 0C817.7 0 782.3 0 746.8 0C711.3 0 675.7 0 640 0C604.3 0 568.7 0 533.2 0C497.7 0 462.3 0 426.8 0C391.3 0 355.7 0 320 0C284.3 0 248.7 0 213.2 0C177.7 0 142.3 0 106.8 0C71.3 0 35.7 0 17.8 0L0 0Z" fill="#4df469"></path><path d="M0 199L17.8 196.8C35.7 194.7 71.3 190.3 106.8 188.5C142.3 186.7 177.7 187.3 213.2 189.8C248.7 192.3 284.3 196.7 320 197C355.7 197.3 391.3 193.7 426.8 187.3C462.3 181 497.7 172 533.2 171.2C568.7 170.3 604.3 177.7 640 186C675.7 194.3 711.3 203.7 746.8 200.3C782.3 197 817.7 181 853.2 176.3C888.7 171.7 924.3 178.3 942.2 181.7L960 185L960 0L942.2 0C924.3 0 888.7 0 853.2 0C817.7 0 782.3 0 746.8 0C711.3 0 675.7 0 640 0C604.3 0 568.7 0 533.2 0C497.7 0 462.3 0 426.8 0C391.3 0 355.7 0 320 0C284.3 0 248.7 0 213.2 0C177.7 0 142.3 0 106.8 0C71.3 0 35.7 0 17.8 0L0 0Z" fill="#42df5e"></path><path d="M0 140L17.8 145.7C35.7 151.3 71.3 162.7 106.8 166C142.3 169.3 177.7 164.7 213.2 163.5C248.7 162.3 284.3 164.7 320 166.3C355.7 168 391.3 169 426.8 172.8C462.3 176.7 497.7 183.3 533.2 185.2C568.7 187 604.3 184 640 182.3C675.7 180.7 711.3 180.3 746.8 174C782.3 167.7 817.7 155.3 853.2 152.5C888.7 149.7 924.3 156.3 942.2 159.7L960 163L960 0L942.2 0C924.3 0 888.7 0 853.2 0C817.7 0 782.3 0 746.8 0C711.3 0 675.7 0 640 0C604.3 0 568.7 0 533.2 0C497.7 0 462.3 0 426.8 0C391.3 0 355.7 0 320 0C284.3 0 248.7 0 213.2 0C177.7 0 142.3 0 106.8 0C71.3 0 35.7 0 17.8 0L0 0Z" fill="#37c952"></path><path d="M0 104L17.8 105C35.7 106 71.3 108 106.8 109.3C142.3 110.7 177.7 111.3 213.2 109.7C248.7 108 284.3 104 320 109.3C355.7 114.7 391.3 129.3 426.8 137.2C462.3 145 497.7 146 533.2 145.2C568.7 144.3 604.3 141.7 640 132.7C675.7 123.7 711.3 108.3 746.8 103.7C782.3 99 817.7 105 853.2 114.5C888.7 124 924.3 137 942.2 143.5L960 150L960 0L942.2 0C924.3 0 888.7 0 853.2 0C817.7 0 782.3 0 746.8 0C711.3 0 675.7 0 640 0C604.3 0 568.7 0 533.2 0C497.7 0 462.3 0 426.8 0C391.3 0 355.7 0 320 0C284.3 0 248.7 0 213.2 0C177.7 0 142.3 0 106.8 0C71.3 0 35.7 0 17.8 0L0 0Z" fill="#2bb548"></path><path d="M0 91L17.8 91.2C35.7 91.3 71.3 91.7 106.8 88.7C142.3 85.7 177.7 79.3 213.2 72.8C248.7 66.3 284.3 59.7 320 56.7C355.7 53.7 391.3 54.3 426.8 55.7C462.3 57 497.7 59 533.2 61.5C568.7 64 604.3 67 640 71C675.7 75 711.3 80 746.8 77.2C782.3 74.3 817.7 63.7 853.2 66.2C888.7 68.7 924.3 84.3 942.2 92.2L960 100L960 0L942.2 0C924.3 0 888.7 0 853.2 0C817.7 0 782.3 0 746.8 0C711.3 0 675.7 0 640 0C604.3 0 568.7 0 533.2 0C497.7 0 462.3 0 426.8 0C391.3 0 355.7 0 320 0C284.3 0 248.7 0 213.2 0C177.7 0 142.3 0 106.8 0C71.3 0 35.7 0 17.8 0L0 0Z" fill="#20a13d"></path><path d="M0 22L17.8 22.7C35.7 23.3 71.3 24.7 106.8 25.8C142.3 27 177.7 28 213.2 28.2C248.7 28.3 284.3 27.7 320 27.2C355.7 26.7 391.3 26.3 426.8 32C462.3 37.7 497.7 49.3 533.2 55.7C568.7 62 604.3 63 640 61.8C675.7 60.7 711.3 57.3 746.8 53.8C782.3 50.3 817.7 46.7 853.2 45.2C888.7 43.7 924.3 44.3 942.2 44.7L960 45L960 0L942.2 0C924.3 0 888.7 0 853.2 0C817.7 0 782.3 0 746.8 0C711.3 0 675.7 0 640 0C604.3 0 568.7 0 533.2 0C497.7 0 462.3 0 426.8 0C391.3 0 355.7 0 320 0C284.3 0 248.7 0 213.2 0C177.7 0 142.3 0 106.8 0C71.3 0 35.7 0 17.8 0L0 0Z" fill="#138d33"></path></svg>